<?xml version="1.0" encoding="UTF-8"?>
<svg xmlns="http://www.w3.org/2000/svg" viewBox="0 0 331.89 402.55" aria-labelledby="title" role="img">
  <title>Peak Solutions Logo</title>
  <path d="M210.8,163.95c-20.68,44.52-40.25,86.65-60.75,130.8-7.47-13.96-9.25-27.96-16.81-40.08-6.38,8.51-9.18,18.68-13.59,28.08-17.43,37.13-35.36,74.03-52.77,111.16-2.87,6.12-6.02,8.89-13.26,8.62-17.24-.64-34.51-.21-53.61-.21C75.84,267.07,150.72,133.53,225.6,0l3.22,.48c34.24,133.51,68.49,267.01,103.07,401.84-17.8,0-34.68-.05-51.55,.03-4.44,.02-6.43-1.46-7.67-6.24-16.84-64.87-33.97-129.67-51.13-194.46-3.13-11.81-6.68-23.5-10.74-37.7Z" fill="#0054ff" />
</svg>
